<?xml version="1.0" encoding="UTF-8" standalone="no" ?>
<!DOCTYPE svg PUBLIC "-//W3C//DTD SVG 1.1//EN" "http://www.w3.org/Graphics/SVG/1.1/DTD/svg11.dtd">
<svg xmlns="http://www.w3.org/2000/svg" xmlns:xlink="http://www.w3.org/1999/xlink" version="1.1" width="1080" height="1080" viewBox="0 0 1080 1080" xml:space="preserve">
<desc>Created with Fabric.js 5.2.4</desc>
<defs>
</defs>
<g transform="matrix(1 0 0 1 540 540)" id="50db6148-fc97-47d8-bde0-d27bf6015d5d"  >
<rect style="stroke: none; stroke-width: 1; stroke-dasharray: none; stroke-linecap: butt; stroke-dashoffset: 0; stroke-linejoin: miter; stroke-miterlimit: 4; fill: rgb(255,255,255); fill-rule: nonzero; opacity: 1; visibility: hidden;" vector-effect="non-scaling-stroke"  x="-540" y="-540" rx="0" ry="0" width="1080" height="1080" />
</g>
<g transform="matrix(1 0 0 1 540 540)" id="c54af26c-c167-4d3c-9540-1c33c1411025"  >
</g>
<g transform="matrix(1 0 0 1 540 540)"  >
<g style="" vector-effect="non-scaling-stroke"   >
		<g transform="matrix(1 0 0 1 0 0)"  >
<path style="stroke: none; stroke-width: 1; stroke-dasharray: none; stroke-linecap: butt; stroke-dashoffset: 0; stroke-linejoin: miter; stroke-miterlimit: 4; fill: rgb(229,9,20); fill-rule: nonzero; opacity: 1;" vector-effect="non-scaling-stroke"  transform=" translate(-50.15, -50.05)" d="M 79.9 4.2 L 20.1 4.2 C 19.700000000000003 4.2 19.3 4.5 19.3 5 L 19.3 12.3 C 19.3 12.700000000000001 19.6 13.100000000000001 20.1 13.100000000000001 L 25.700000000000003 13.100000000000001 L 25.700000000000003 95.1 C 25.700000000000003 95.5 26.000000000000004 95.89999999999999 26.500000000000004 95.89999999999999 L 33.800000000000004 95.89999999999999 L 66.5 95.89999999999999 L 73.8 95.89999999999999 C 74.2 95.89999999999999 74.6 95.6 74.6 95.1 L 74.6 13 L 80.19999999999999 13 C 80.6 13 80.99999999999999 12.7 80.99999999999999 12.2 L 80.99999999999999 5 C 80.7 4.6 80.4 4.2 79.9 4.2 z M 27.1 13 L 32.9 13 L 32.9 20 L 32.9 49.4 L 32.9 74 L 32.9 84.5 L 32.9 94.2 L 27.099999999999998 94.2 L 27.099999999999998 13 z M 49.3 13 L 49.3 19.2 L 34.4 19.2 L 34.4 13 L 49.3 13 z M 56.5 83.8 C 56.1 80.5 53.4 78 50 78 C 46.6 78 43.9 80.5 43.5 83.8 L 34.4 83.8 L 34.4 74.8 L 65.6 74.8 L 65.6 83.8 C 65.6 83.8 56.5 83.8 56.5 83.8 z M 55.1 84.5 C 55.1 87.3 52.800000000000004 89.6 50 89.6 C 47.199999999999996 89.6 44.9 87.3 44.9 84.5 C 44.9 81.7 47.199999999999996 79.4 50 79.4 C 52.8 79.5 55.1 81.7 55.1 84.5 z M 65.6 20.8 L 65.6 30.1 L 34.39999999999999 48.1 L 34.39999999999999 20.8 L 65.6 20.8 z M 65.6 73.3 L 34.4 73.3 L 34.4 49.8 L 65.6 31.799999999999997 L 65.6 73.3 z M 65.6 19.3 L 50.8 19.3 L 50.8 13 L 65.6 13 L 65.6 19.3 z M 34.4 85.3 L 43.5 85.3 C 43.9 88.6 46.6 91.1 50 91.1 C 53.4 91.1 56.1 88.6 56.5 85.3 L 65.6 85.3 L 65.6 94.3 L 34.4 94.3 L 34.4 85.3 z M 72.9 94.2 L 67.10000000000001 94.2 L 67.10000000000001 84.5 L 67.10000000000001 74 L 67.10000000000001 30.5 L 67.10000000000001 20 L 67.10000000000001 13 L 72.9 13 C 72.9 13 72.9 94.2 72.9 94.2 z M 79.2 11.5 L 73.60000000000001 11.5 L 66.30000000000001 11.5 L 33.7 11.5 L 26.400000000000002 11.5 L 20.800000000000004 11.5 L 20.800000000000004 5.8 L 79.2 5.8 C 79.2 5.8 79.2 11.5 79.2 11.5 z" stroke-linecap="round" />
</g>
		<g transform="matrix(0.87 -0.5 0.5 0.87 -0.21 -15.87)"  >
<rect style="stroke: none; stroke-width: 1; stroke-dasharray: none; stroke-linecap: butt; stroke-dashoffset: 0; stroke-linejoin: miter; stroke-miterlimit: 4; fill: rgb(229,9,20); fill-rule: nonzero; opacity: 1;" vector-effect="non-scaling-stroke"  x="-15.35" y="-0.75" rx="0" ry="0" width="30.7" height="1.5" />
</g>
</g>
</g>
<g transform="matrix(NaN NaN NaN NaN 0 0)"  >
<g style=""   >
</g>
</g>
<g transform="matrix(NaN NaN NaN NaN 0 0)"  >
<g style=""   >
</g>
</g>
<g transform="matrix(NaN NaN NaN NaN 0 0)"  >
<g style=""   >
</g>
</g>
</svg>