<?xml version="1.0" encoding="UTF-8" standalone="no" ?>
<!DOCTYPE svg PUBLIC "-//W3C//DTD SVG 1.1//EN" "http://www.w3.org/Graphics/SVG/1.1/DTD/svg11.dtd">
<svg xmlns="http://www.w3.org/2000/svg" xmlns:xlink="http://www.w3.org/1999/xlink" version="1.1" width="1080" height="1080" viewBox="0 0 1080 1080" xml:space="preserve">
<desc>Created with Fabric.js 5.2.4</desc>
<defs>
</defs>
<g transform="matrix(1 0 0 1 540 540)" id="abaf6d54-7dbf-47fc-901a-2841e694d02b"  >
<rect style="stroke: none; stroke-width: 1; stroke-dasharray: none; stroke-linecap: butt; stroke-dashoffset: 0; stroke-linejoin: miter; stroke-miterlimit: 4; fill: rgb(255,255,255); fill-rule: nonzero; opacity: 1; visibility: hidden;" vector-effect="non-scaling-stroke"  x="-540" y="-540" rx="0" ry="0" width="1080" height="1080" />
</g>
<g transform="matrix(1 0 0 1 540 540)" id="b942f0ac-fbea-4a45-83a4-59bcf6a6fc95"  >
</g>
<g transform="matrix(1 0 0 1 540 540)" id="98a630c9-3602-47c6-966d-055d6573bd0f"  >
<path style="stroke: rgb(0,0,0); stroke-width: 0; stroke-dasharray: none; stroke-linecap: butt; stroke-dashoffset: 0; stroke-linejoin: miter; stroke-miterlimit: 4; fill: rgb(229,9,20); fill-rule: nonzero; opacity: 1;" vector-effect="non-scaling-stroke"  transform=" translate(-49.96, -50)" d="M 50 5 C 30.645132 5 15 20.07884 15 38.84375 L 15 93 L 10 93 C 9.937637908229187 92.99412828327519 9.874862091770815 92.99412828327519 9.8125 93 C 9.260215250169207 93.05177669529664 8.854473304703363 93.54146525016921 8.90625 94.09375 C 8.958026695296637 94.64603474983079 9.447715250169207 95.05177669529664 10 95 L 90 95 C 90.36063591657756 95.00510028954548 90.69608136457161 94.81562470383066 90.87788772148652 94.50412715028567 C 91.05969407840142 94.19262959674067 91.05969407840142 93.80737040325933 90.87788772148652 93.49587284971433 C 90.69608136457161 93.18437529616934 90.36063591657756 92.99489971045452 90 93 L 85 93 L 85 38.84375 C 85 20.07884 69.354858 5 50 5 z M 50 7 C 68.317142 7 83 21.18916 83 38.84375 L 83 93 L 17 93 L 17 38.84375 C 17 21.18916 31.682848 7 50 7 z M 37.8125 39 C 37.2602152501692 39.05177669529664 36.85447330470336 39.5414652501692 36.90625 40.09375 C 36.95802669529664 40.64603474983079 37.4477152501692 41.05177669529664 38 41 L 62 41 C 62.36063591657757 41.00510028954548 62.696081364571604 40.81562470383067 62.877887721486516 40.50412715028567 C 63.05969407840143 40.19262959674067 63.05969407840143 39.80737040325933 62.877887721486516 39.49587284971433 C 62.696081364571604 39.184375296169335 62.36063591657757 38.99489971045452 62 39 L 38 39 C 37.937637908229185 38.99412828327519 37.874862091770815 38.99412828327519 37.8125 39 z M 28.8125 52 C 28.260215250169207 52.05177669529664 27.85447330470336 52.5414652501692 27.90625 53.09375 C 27.95802669529664 53.64603474983079 28.447715250169207 54.05177669529664 29 54 L 71 54 C 71.36063591657756 54.00510028954548 71.69608136457161 53.81562470383067 71.87788772148652 53.50412715028567 C 72.05969407840142 53.19262959674067 72.05969407840142 52.80737040325933 71.87788772148652 52.49587284971433 C 71.69608136457161 52.184375296169335 71.36063591657756 51.99489971045452 71 52 L 29 52 C 28.937637908229185 51.99412828327519 28.874862091770815 51.99412828327519 28.8125 52 z M 37.8125 65 C 37.2602152501692 65.05177669529664 36.85447330470336 65.54146525016921 36.90625 66.09375 C 36.95802669529664 66.64603474983079 37.4477152501692 67.05177669529664 38 67 L 62 67 C 62.36063591657757 67.00510028954548 62.696081364571604 66.81562470383066 62.877887721486516 66.50412715028567 C 63.05969407840143 66.19262959674067 63.05969407840143 65.80737040325933 62.877887721486516 65.49587284971433 C 62.696081364571604 65.18437529616934 62.36063591657757 64.99489971045452 62 65 L 38 65 C 37.937637908229185 64.99412828327519 37.874862091770815 64.99412828327519 37.8125 65 z" stroke-linecap="round" />
</g>
<g transform="matrix(NaN NaN NaN NaN 0 0)"  >
<g style=""   >
</g>
</g>
<g transform="matrix(NaN NaN NaN NaN 0 0)"  >
<g style=""   >
</g>
</g>
</svg>